<svg xmlns="http://www.w3.org/2000/svg" version="1.1" xmlns:xlink="http://www.w3.org/1999/xlink" xmlns:svgjs="http://svgjs.dev/svgjs" width="1440" height="560" preserveAspectRatio="none" viewBox="0 0 1440 560">
    <g mask="url(&quot;#SvgjsMask1003&quot;)" fill="none">
        <path d="M420 131.25C416.28 134.15 416.32 135.63 416.32 140C416.32 144.38 415.58 147.34 420 148.75C487.42 170.29 494.88 188.84 560 185.9C591.81 184.46 613.85 168.64 613.85 140C613.85 89.69 600.39 29.82 560 28C503.46 25.45 488.12 78.15 420 131.25" stroke="rgba(199, 199, 199, 1)" stroke-width="2"></path>
        <path d="M840 100C814.2 100 793.33 122.03 793.33 140C793.33 155.86 815.26 167.65 840 167.65C878.6 167.65 920 156.45 920 140C920 122.62 877.54 100 840 100" stroke="rgba(199, 199, 199, 1)" stroke-width="2"></path>
        <path d="M1120 206.96C1108.32 206.96 1096.34 246.46 1096.34 280C1096.34 294.33 1108.25 302.7 1120 302.7C1131.58 302.7 1143.01 294.21 1143.01 280C1143.01 246.34 1131.65 206.96 1120 206.96" stroke="rgba(199, 199, 199, 1)" stroke-width="2"></path>
        <path d="M140 84C72.06 42 4.12 22.7 4.12 0C4.12 -19.3 72.06 0 140 0C210 0 210 0 280 0C335.41 0 381.62 -29.18 390.83 0C403.72 40.82 331.13 67.79 324.21 140C317.71 207.79 345.93 209.53 364 280C381.83 349.53 400.53 351.24 396 420C391.31 491.24 385.83 511.41 345.57 560C327.83 581.41 312.78 560 280 560C241.91 560 220.74 584.5 203.82 560C172.4 514.5 205.82 483.58 183.33 420C173.91 393.36 157.05 403.42 140 379.56C107.03 333.42 83.29 328.62 83.29 280C83.29 237.36 104.34 230.93 140 197.04C177.99 160.93 230.59 168.33 230.59 140C230.59 111.81 185.29 112 140 84" stroke="rgba(199, 199, 199, 1)" stroke-width="2"></path>
        <path d="M681.15 140C708.45 83.07 668.59 60.01 676.67 0C678.02 -9.99 688.34 0 700 0C770 0 770 0 840 0C859.44 0 878.89 -7.85 878.89 0C878.89 10.9 860.24 19.62 840 37.5C781 89.62 720.42 93.96 720.42 140C720.42 180.64 776.17 201.34 840 210.86C905.96 220.7 923.91 159.99 980 178.72C1027.43 194.56 1008.84 233.27 1047.04 280C1078.84 318.91 1083.76 350 1120 350C1155.72 350 1183.82 322.85 1190.96 280C1201.32 217.85 1137.12 198.02 1155 140C1171.64 86.02 1204.15 57.28 1260 56C1326.65 54.48 1345.04 148.68 1400 134.4C1452.8 120.68 1426.16 47.38 1475.51 0C1496.16 -19.82 1529.83 -22.08 1540 0C1562.08 47.92 1540 70 1540 140C1540 166.25 1558.65 190.31 1540 192.5C1488.65 198.54 1447.66 133.45 1400 156.47C1357.07 177.2 1358.82 220.99 1358.82 280C1358.82 313.64 1369.46 324.41 1400 341.76C1460.05 375.88 1484.18 351.74 1540 382.94C1554.18 390.86 1540 401.47 1540 420C1540 490 1575 525 1540 560C1505 595 1470 560 1400 560C1336.36 560 1296.89 593.06 1272.73 560C1245.73 523.06 1302.55 482.15 1297.69 420C1296.18 400.75 1277.4 397.21 1260 397.21C1247.42 397.21 1238.87 404.94 1237.73 420C1232.7 486.33 1278.48 523.34 1247.65 560C1219.61 593.34 1183.82 560 1120 560C1050 560 1050 560 980 560C932.64 560 885.29 582.35 885.29 560C885.29 524.85 930.64 500.51 980 445C992.89 430.51 1009.79 433.4 1009.79 420C1009.79 404.99 1000.12 393.13 980 388.18C915.22 372.25 910.04 378.85 840 378.25C770.04 377.65 768.08 395.7 700 385.78C628.08 375.3 626.55 368.57 560 337.44C513.48 315.68 473.85 304.72 473.85 280C473.85 257.64 521.61 269.21 560 243.28C625.26 199.21 650.12 204.71 681.15 140" stroke="rgba(199, 199, 199, 1)" stroke-width="2"></path>
        <path d="M0 486.74C24.93 486.74 82.89 539.06 82.89 560C82.89 575.69 22 579.44 0 560C-19.44 542.81 -16.51 486.74 0 486.74" stroke="rgba(199, 199, 199, 1)" stroke-width="2"></path>
        <path d="M670.94 560C670.94 534.7 682.05 490 700 490C719.92 490 746.67 537.49 746.67 560C746.67 572.49 723.34 560 700 560C685.47 560 670.94 569.7 670.94 560" stroke="rgba(199, 199, 199, 1)" stroke-width="2"></path>
        <path d="M140 20.36C122.12 13.12 107.06 5.5 107.06 0C107.06 -4.68 123.53 0 140 0C210 0 210 0 280 0C298.96 0 317.92 -11.29 317.92 0C317.92 23.71 311.04 66.45 280 70C222.08 76.63 208.59 48.12 140 20.36" stroke="rgba(199, 199, 199, 1)" stroke-width="2"></path>
        <path d="M1217.5 140C1220.43 115.85 1237.42 106 1260 106C1288.42 106 1314.61 111.82 1319.5 140C1329.71 198.82 1312.61 213.78 1290.2 280C1282.86 301.69 1273.59 315.81 1260 315.81C1247.94 315.81 1243.72 299.94 1238.9 280C1222.47 212.04 1209.88 202.85 1217.5 140" stroke="rgba(199, 199, 199, 1)" stroke-width="2"></path>
        <path d="M1540 86.15C1533.58 86.15 1514.83 33.64 1514.83 0C1514.83 -9.43 1537.15 -9.74 1540 0C1549.74 33.34 1546.16 86.15 1540 86.15" stroke="rgba(199, 199, 199, 1)" stroke-width="2"></path>
        <path d="M127.59 280C127.59 270.67 130.66 261.85 140 261.85C165.69 261.85 197.65 270.11 197.65 280C197.65 290.08 164.9 301.78 140 301.78C129.87 301.78 127.59 290.64 127.59 280" stroke="rgba(199, 199, 199, 1)" stroke-width="2"></path>
        <path d="M630 280C630 260.31 660.85 238.16 700 233.33C765.85 225.2 769.62 249.08 840 254.07C909.62 259.01 915.86 242.65 980 253.19C994.73 255.61 997.75 266.46 997.75 280C997.75 294.19 995.28 305.07 980 308.64C916.4 323.49 909.99 317 840 316.84C769.99 316.68 768.3 319.98 700 308C663.3 301.56 630 297.64 630 280" stroke="rgba(199, 199, 199, 1)" stroke-width="2"></path>
        <path d="M266.67 420C269.52 399.22 272.75 380 280 380C287.41 380 293.5 398.83 296 420C304.13 488.83 308.22 499.23 301.27 560C300.22 569.23 290.63 560 280 560C267.64 560 256.29 570.47 255.29 560C249.62 500.47 257.17 489.22 266.67 420" stroke="rgba(199, 199, 199, 1)" stroke-width="2"></path>
        <path d="M1084.26 420C1100.87 406.93 1101.96 397.3 1120 397.3C1138.92 397.3 1155.21 400.47 1158.18 420C1167.57 481.82 1160.95 500.46 1144.71 560C1141.86 570.46 1132.36 560 1120 560C1050 560 1050 560 980 560C958.38 560 936.76 570.2 936.76 560C936.76 543.95 955.43 530.82 980 507.5C1029.18 460.82 1030.87 462.03 1084.26 420" stroke="rgba(199, 199, 199, 1)" stroke-width="2"></path>
        <path d="M0 527.44C11.08 527.44 36.84 550.69 36.84 560C36.84 566.97 9.78 568.64 0 560C-8.64 552.36 -7.34 527.44 0 527.44" stroke="rgba(199, 199, 199, 1)" stroke-width="2"></path>
        <path d="M1378.79 560C1378.79 535.82 1388.74 496.36 1400 496.36C1411.42 496.36 1424.14 536.51 1424.14 560C1424.14 568.33 1412.07 560 1400 560C1389.39 560 1378.79 567.64 1378.79 560" stroke="rgba(199, 199, 199, 1)" stroke-width="2"></path>
    </g>
    <defs>
        <mask id="SvgjsMask1003">
            <rect width="1440" height="560" fill="#ffffff"></rect>
        </mask>
    </defs>
</svg>