<svg xmlns="http://www.w3.org/2000/svg" version="1.1" xmlns:xlink="http://www.w3.org/1999/xlink" xmlns:svgjs="http://svgjs.dev/svgjs" width="1440" height="560" preserveAspectRatio="none" viewBox="0 0 1440 560">
    <g mask="url(&quot;#SvgjsMask1041&quot;)" fill="none">
        <rect width="1440" height="560" x="0" y="0" fill="rgba(229, 229, 229, 1)"></rect>
        <path d="M687 446L686 845" stroke-width="10" stroke="url(&quot;#SvgjsLinearGradient1042&quot;)" stroke-linecap="round" class="Down"></path>
        <path d="M1250 224L1249 1" stroke-width="6" stroke="url(&quot;#SvgjsLinearGradient1042&quot;)" stroke-linecap="round" class="Down"></path>
        <path d="M526 355L525 16" stroke-width="6" stroke="url(&quot;#SvgjsLinearGradient1042&quot;)" stroke-linecap="round" class="Down"></path>
        <path d="M454 516L453 698" stroke-width="6" stroke="url(&quot;#SvgjsLinearGradient1043&quot;)" stroke-linecap="round" class="Up"></path>
        <path d="M236 336L235 40" stroke-width="6" stroke="url(&quot;#SvgjsLinearGradient1043&quot;)" stroke-linecap="round" class="Up"></path>
        <path d="M662 77L661 318" stroke-width="6" stroke="url(&quot;#SvgjsLinearGradient1042&quot;)" stroke-linecap="round" class="Down"></path>
        <path d="M375 458L374 667" stroke-width="8" stroke="url(&quot;#SvgjsLinearGradient1042&quot;)" stroke-linecap="round" class="Down"></path>
        <path d="M1438 149L1437 -236" stroke-width="6" stroke="url(&quot;#SvgjsLinearGradient1042&quot;)" stroke-linecap="round" class="Down"></path>
        <path d="M1355 338L1354 22" stroke-width="6" stroke="url(&quot;#SvgjsLinearGradient1043&quot;)" stroke-linecap="round" class="Up"></path>
        <path d="M1025 368L1024 -35" stroke-width="10" stroke="url(&quot;#SvgjsLinearGradient1043&quot;)" stroke-linecap="round" class="Up"></path>
        <path d="M949 553L948 896" stroke-width="6" stroke="url(&quot;#SvgjsLinearGradient1043&quot;)" stroke-linecap="round" class="Up"></path>
        <path d="M533 355L532 740" stroke-width="10" stroke="url(&quot;#SvgjsLinearGradient1042&quot;)" stroke-linecap="round" class="Down"></path>
        <path d="M1121 527L1120 352" stroke-width="8" stroke="url(&quot;#SvgjsLinearGradient1043&quot;)" stroke-linecap="round" class="Up"></path>
        <path d="M1279 406L1278 240" stroke-width="8" stroke="url(&quot;#SvgjsLinearGradient1043&quot;)" stroke-linecap="round" class="Up"></path>
        <path d="M269 339L268 -30" stroke-width="6" stroke="url(&quot;#SvgjsLinearGradient1042&quot;)" stroke-linecap="round" class="Down"></path>
        <path d="M1087 151L1086 422" stroke-width="8" stroke="url(&quot;#SvgjsLinearGradient1043&quot;)" stroke-linecap="round" class="Up"></path>
        <path d="M1435 23L1434 376" stroke-width="6" stroke="url(&quot;#SvgjsLinearGradient1042&quot;)" stroke-linecap="round" class="Down"></path>
        <path d="M843 127L842 -162" stroke-width="6" stroke="url(&quot;#SvgjsLinearGradient1043&quot;)" stroke-linecap="round" class="Up"></path>
        <path d="M1096 237L1095 -135" stroke-width="8" stroke="url(&quot;#SvgjsLinearGradient1043&quot;)" stroke-linecap="round" class="Up"></path>
        <path d="M1359 109L1358 266" stroke-width="10" stroke="url(&quot;#SvgjsLinearGradient1042&quot;)" stroke-linecap="round" class="Down"></path>
        <path d="M63 522L62 826" stroke-width="10" stroke="url(&quot;#SvgjsLinearGradient1042&quot;)" stroke-linecap="round" class="Down"></path>
        <path d="M1108 559L1107 805" stroke-width="6" stroke="url(&quot;#SvgjsLinearGradient1043&quot;)" stroke-linecap="round" class="Up"></path>
        <path d="M510 467L509 855" stroke-width="6" stroke="url(&quot;#SvgjsLinearGradient1042&quot;)" stroke-linecap="round" class="Down"></path>
        <path d="M279 256L278 526" stroke-width="10" stroke="url(&quot;#SvgjsLinearGradient1042&quot;)" stroke-linecap="round" class="Down"></path>
        <path d="M314 51L313 -125" stroke-width="6" stroke="url(&quot;#SvgjsLinearGradient1043&quot;)" stroke-linecap="round" class="Up"></path>
        <path d="M1059 92L1058 269" stroke-width="8" stroke="url(&quot;#SvgjsLinearGradient1043&quot;)" stroke-linecap="round" class="Up"></path>
        <path d="M272 199L271 -127" stroke-width="6" stroke="url(&quot;#SvgjsLinearGradient1042&quot;)" stroke-linecap="round" class="Down"></path>
        <path d="M1151 181L1150 -228" stroke-width="6" stroke="url(&quot;#SvgjsLinearGradient1043&quot;)" stroke-linecap="round" class="Up"></path>
        <path d="M1069 488L1068 220" stroke-width="6" stroke="url(&quot;#SvgjsLinearGradient1042&quot;)" stroke-linecap="round" class="Down"></path>
        <path d="M1147 464L1146 802" stroke-width="10" stroke="url(&quot;#SvgjsLinearGradient1042&quot;)" stroke-linecap="round" class="Down"></path>
        <path d="M1247 557L1246 355" stroke-width="6" stroke="url(&quot;#SvgjsLinearGradient1043&quot;)" stroke-linecap="round" class="Up"></path>
        <path d="M917 227L916 451" stroke-width="8" stroke="url(&quot;#SvgjsLinearGradient1043&quot;)" stroke-linecap="round" class="Up"></path>
        <path d="M700 267L699 -108" stroke-width="6" stroke="url(&quot;#SvgjsLinearGradient1043&quot;)" stroke-linecap="round" class="Up"></path>
        <path d="M165 217L164 -47" stroke-width="8" stroke="url(&quot;#SvgjsLinearGradient1042&quot;)" stroke-linecap="round" class="Down"></path>
        <path d="M1054 401L1053 259" stroke-width="6" stroke="url(&quot;#SvgjsLinearGradient1043&quot;)" stroke-linecap="round" class="Up"></path>
        <path d="M763 203L762 575" stroke-width="8" stroke="url(&quot;#SvgjsLinearGradient1043&quot;)" stroke-linecap="round" class="Up"></path>
    </g>
    <defs>
        <mask id="SvgjsMask1041">
            <rect width="1440" height="560" fill="#ffffff"></rect>
        </mask>
        <linearGradient x1="0%" y1="0%" x2="0%" y2="100%" id="SvgjsLinearGradient1042">
            <stop stop-color="rgba(199, 199, 199, 0)" offset="0"></stop>
            <stop stop-color="rgba(199, 199, 199, 1)" offset="1"></stop>
        </linearGradient>
        <linearGradient x1="0%" y1="100%" x2="0%" y2="0%" id="SvgjsLinearGradient1043">
            <stop stop-color="rgba(199, 199, 199, 0)" offset="0"></stop>
            <stop stop-color="rgba(199, 199, 199, 1)" offset="1"></stop>
        </linearGradient>
    </defs>
</svg>