<svg xmlns="http://www.w3.org/2000/svg" version="1.1" xmlns:xlink="http://www.w3.org/1999/xlink" xmlns:svgjs="http://svgjs.dev/svgjs" width="1440" height="560" preserveAspectRatio="none" viewBox="0 0 1440 560">
    <g mask="url(&quot;#SvgjsMask1047&quot;)" fill="none">
        <rect width="1440" height="560" x="0" y="0" fill="rgba(255, 255, 255, 1)"></rect>
        <path d="M 0,93 C 57.6,114.4 172.8,194.4 288,200 C 403.2,205.6 460.8,113.4 576,121 C 691.2,128.6 748.8,244.2 864,238 C 979.2,231.8 1036.8,90.4 1152,90 C 1267.2,89.6 1382.4,206.8 1440,236L1440 560L0 560z" fill="rgba(231, 231, 231, 1)"></path>
        <path d="M 0,377 C 72,403 216,507.2 360,507 C 504,506.8 576,389.4 720,376 C 864,362.6 936,454.2 1080,440 C 1224,425.8 1368,332 1440,305L1440 560L0 560z" fill="rgba(197, 197, 197, 1)"></path>
    </g>
    <defs>
        <mask id="SvgjsMask1047">
            <rect width="1440" height="560" fill="#ffffff"></rect>
        </mask>
    </defs>
</svg>